<svg xmlns="http://www.w3.org/2000/svg" viewBox="0 0 31.79 31.82"><defs><style>.cls-1{fill:#a1887f;}.cls-2{fill:#795548;}.cls-3{fill:#5d4037;opacity:0.6;}</style></defs><title>Fichier 5</title><g id="Calque_2" data-name="Calque 2"><g id="Calque_5" data-name="Calque 5"><path class="cls-1" d="M28.89,15.2c.24-2.84,2-5.25.64-8.1-.93-2-2.9-3-4.72-4A23.47,23.47,0,0,0,15.57,0C12-.21,8.53,1.28,4.92.62a3.23,3.23,0,0,0-3.15.83c-1.88,2.43-2.46,5.26-.62,8a5.5,5.5,0,0,0,.65.78,9.13,9.13,0,0,0-.34,5.4c.76,2.91,3.73,4.33,3.75,7.49,0,2.74-1.14,4.84,1.39,6.94a6.75,6.75,0,0,0,6.23,1.18c2.31-.72,3.41-3.33,5.63-3.59,1.37-.16,3.28,1.19,4.69,1.5a10.75,10.75,0,0,0,4.92.1C35.34,27.15,28.53,19.46,28.89,15.2Z"/><path class="cls-2" d="M31.22,24.34a13.56,13.56,0,0,0-2.7-7.65c-1.84-2.29-4.17-2.54-6.91-3A100.22,100.22,0,0,1,6.54,10l-.21,0A2.47,2.47,0,0,0,4,8.82l-.8.05A3,3,0,0,0,.65,10.33a4.46,4.46,0,0,0,.42,5.23l.4.57a2.37,2.37,0,0,0,.07.29A5.84,5.84,0,0,0,3,18.58l.76,1a15.19,15.19,0,0,1,1.17,2.49c-1,4.61,1,10.43,6.81,9.71,3.22-.4,4.67-4.15,8.12-3.88,3.12.25,4.82,3.33,8.16,2A5,5,0,0,0,29.43,29C31.61,28.77,32.45,26.07,31.22,24.34Z"/><path class="cls-3" d="M4.71,5.23a.57.57,0,0,0,0,1.13A.57.57,0,0,0,4.71,5.23Z"/><path class="cls-3" d="M7.15,14.22c-4,0-4,6.21,0,6.21S11.15,14.22,7.15,14.22Z"/><path class="cls-3" d="M10.54,23.05c-4.14,0-4.14,6.43,0,6.43S14.68,23.05,10.54,23.05Z"/><path class="cls-3" d="M16.5,15.61c-3.42,0-3.43,5.32,0,5.32S19.93,15.61,16.5,15.61Z"/><path class="cls-3" d="M24.5,24.21a.7.7,0,0,0,0,1.4A.7.7,0,0,0,24.5,24.21Z"/><path class="cls-3" d="M25.45,15.29a1.08,1.08,0,0,0,0,2.16A1.08,1.08,0,0,0,25.45,15.29Z"/><path class="cls-3" d="M18.27,23.83a.68.68,0,0,0,0,1.35A.68.68,0,0,0,18.27,23.83Z"/><path class="cls-3" d="M20.3,10.55c-2.61,0-2.62,4.06,0,4.06S22.92,10.55,20.3,10.55Z"/><path class="cls-3" d="M10.81,9c-2.9,0-2.9,4.5,0,4.5S13.71,9,10.81,9Z"/><path class="cls-3" d="M11.22,2.61a1.29,1.29,0,0,0,0,2.58A1.29,1.29,0,0,0,11.22,2.61Z"/><path class="cls-3" d="M20.84,4a.09.09,0,0,0,0,.17A.09.09,0,0,0,20.84,4Z"/><path class="cls-3" d="M16.5,4.92c-4.1,0-4.1,6.37,0,6.37S20.61,4.92,16.5,4.92Z"/><path class="cls-3" d="M25.86,5.16c-4,0-4,6.16,0,6.16S29.83,5.16,25.86,5.16Z"/><path class="cls-3" d="M22.74,19.4c-3.09,0-3.09,4.8,0,4.8S25.83,19.4,22.74,19.4Z"/><path class="cls-3" d="M27.89,24.61a1.66,1.66,0,0,0,0,3.32A1.66,1.66,0,0,0,27.89,24.61Z"/><path class="cls-3" d="M5,9.13c-3.39,0-3.4,5.27,0,5.27S8.38,9.13,5,9.13Z"/><path class="cls-3" d="M7.29,2.13a1.37,1.37,0,0,0,0,2.74A1.37,1.37,0,0,0,7.29,2.13Z"/></g></g></svg>