<svg xmlns="http://www.w3.org/2000/svg" viewBox="0 0 30.49 32"><defs><style>.cls-1{fill:#a1887f;}.cls-2{fill:#795548;}.cls-3{fill:#5d4037;opacity:0.6;}</style></defs><title>Fichier 4</title><g id="Calque_2" data-name="Calque 2"><g id="Calque_4" data-name="Calque 4"><path class="cls-1" d="M29.26,20c-.6-1.78-2.1-3.23-2.68-4.91-.66-1.9.19-2.54.88-4.44A8.66,8.66,0,0,0,28,5.88,5.88,5.88,0,0,0,21.63.93C17.26,1.26,13.12-.65,8.71.24,5.51.88,1.81,2.81.49,6-1,9.51,1.2,11.14,2.91,13.8c1.87,2.9-1.62,6.66,0,10.33s5.76,5.4,9.06,7.3A3.05,3.05,0,0,0,16.53,29c1.91-1,3.1-2.41,5.6-1.4,1.53.62,2.34,1.67,4.09,1.93a3.12,3.12,0,0,0,3.87-2.95A18.13,18.13,0,0,0,29.26,20Z"/><path class="cls-2" d="M30,21.57c-1-3.31-2.82-6-6.4-6.59-2.37-.42-4.85.25-7.23.28a25.1,25.1,0,0,1-7.42-1.08,3.8,3.8,0,0,0-.44-.34,3.56,3.56,0,0,0-2.28-.58l-.29-.11a2.19,2.19,0,0,0-3,1.92,6.24,6.24,0,0,0-.74,1C.56,18.63.79,22.36,2.11,25,4,28.66,8.36,29.92,12,31.45a2.83,2.83,0,0,0,.68.33l.36.11A2.55,2.55,0,0,0,16.12,30c.51-.39,1-.79,1.62-1.18a7.43,7.43,0,0,1,5.58-.8c.89,1.54,2.18,2.52,4.35,1.64C31,28.35,30.83,24.39,30,21.57Z"/><path class="cls-3" d="M9.15,22.9c-2.52,0-2.53,3.92,0,3.92S11.68,22.9,9.15,22.9Z"/><path class="cls-3" d="M24.94,23.34a.55.55,0,0,0,0,1.09A.55.55,0,0,0,24.94,23.34Z"/><path class="cls-3" d="M18.09,18.55c-3.62,0-3.63,5.63,0,5.63S21.72,18.55,18.09,18.55Z"/><path class="cls-3" d="M10,15.43a.91.91,0,0,0,0,1.81A.91.91,0,0,0,10,15.43Z"/><path class="cls-3" d="M18.79,12.59a1.38,1.38,0,0,0,0,2.76A1.38,1.38,0,0,0,18.79,12.59Z"/><path class="cls-3" d="M11.52,5.64c-3.7,0-3.71,5.76,0,5.76S15.23,5.64,11.52,5.64Z"/><path class="cls-3" d="M24.66,5.47a1.38,1.38,0,0,0,0,2.75A1.38,1.38,0,0,0,24.66,5.47Z"/><path class="cls-3" d="M18.51,6.65a1.31,1.31,0,0,0,0,2.62A1.31,1.31,0,0,0,18.51,6.65Z"/><path class="cls-3" d="M6.08,2.92C3,2.92,3,7.69,6.08,7.69S9.15,2.92,6.08,2.92Z"/><path class="cls-3" d="M5.66,11a.69.69,0,0,0,0,1.37A.69.69,0,0,0,5.66,11Z"/><path class="cls-3" d="M4.54,18.56a1.69,1.69,0,0,0,0,3.38A1.69,1.69,0,0,0,4.54,18.56Z"/><path class="cls-3" d="M15.16,26.52a.86.86,0,0,0,0,1.72A.86.86,0,0,0,15.16,26.52Z"/><path class="cls-3" d="M12.22,19.38a.45.45,0,0,0,0,.91A.45.45,0,0,0,12.22,19.38Z"/><path class="cls-3" d="M24.24,16c-2.59,0-2.59,4,0,4S26.83,16,24.24,16Z"/><path class="cls-3" d="M16.13,3.11a.8.8,0,0,0,0,1.59A.8.8,0,0,0,16.13,3.11Z"/><path class="cls-3" d="M21.16,2.52a.83.83,0,0,0,0,1.66A.83.83,0,0,0,21.16,2.52Z"/></g></g></svg>