<svg xmlns="http://www.w3.org/2000/svg" viewBox="0 0 32 31.9"><defs><style>.cls-1{fill:#a1887f;}.cls-2{fill:#795548;}.cls-3{fill:#5d4037;opacity:0.6;}</style></defs><title>Fichier 6</title><g id="Calque_2" data-name="Calque 2"><g id="Calque_6" data-name="Calque 6"><path class="cls-1" d="M30.39,8.49C27.24,2.73,20.64-.46,13.9.05A14.68,14.68,0,0,0,.1,16.6c.42,3.82,1.44,7.54,4,10.61,2.76,3.33,6.34,3.89,10.54,4.6a5.72,5.72,0,0,0,5.74-2.27,13.49,13.49,0,0,0,5.5-3.18C30.67,21.43,33.88,14.87,30.39,8.49Z"/><path class="cls-2" d="M31.93,13.65c-.28-2.35-1.41-4.15-2.08-6.26A4.92,4.92,0,0,0,25.17,3.9,5.08,5.08,0,0,0,20,5c-3.43,3.13-6.28,7.13-10.25,9.68C6.11,17.08.8,18.65,2,24c.86,4,5.28,6.68,9.17,7.49a11.69,11.69,0,0,0,9.75-2.09c4.6-1.23,7.5-5.49,9.56-9.38A10,10,0,0,0,31.93,13.65Z"/><path class="cls-3" d="M6.59,5.21a1.75,1.75,0,1,0,0,3.51A1.75,1.75,0,1,0,6.59,5.21Z"/><path class="cls-3" d="M3.63,14.09a1.07,1.07,0,1,0,0,2.14A1.07,1.07,0,1,0,3.63,14.09Z"/><path class="cls-3" d="M6.13,21.91a1.94,1.94,0,1,0,0,3.87A1.94,1.94,0,1,0,6.13,21.91Z"/><path class="cls-3" d="M11.59,24.63a2.65,2.65,0,1,0,0,5.3A2.65,2.65,0,1,0,11.59,24.63Z"/><path class="cls-3" d="M21.39,21.95a2,2,0,1,0,0,4A2,2,0,1,0,21.39,21.95Z"/><path class="cls-3" d="M13.37,15.44a2.52,2.52,0,1,0,0,5A2.52,2.52,0,1,0,13.37,15.44Z"/><path class="cls-3" d="M23.17,14.88a1.84,1.84,0,1,0,0,3.68A1.84,1.84,0,1,0,23.17,14.88Z"/><path class="cls-3" d="M28.3,10.22a1.68,1.68,0,1,0,0,3.37A1.68,1.68,0,1,0,28.3,10.22Z"/><path class="cls-3" d="M19,6.66A2.18,2.18,0,1,0,19,11,2.18,2.18,0,1,0,19,6.66Z"/><path class="cls-3" d="M17.58.84a1.94,1.94,0,1,0,0,3.88A1.94,1.94,0,1,0,17.58.84Z"/><path class="cls-3" d="M11.79,7.88a2.78,2.78,0,1,0,0,5.55A2.78,2.78,0,1,0,11.79,7.88Z"/><path class="cls-3" d="M7.18,16.14a1.71,1.71,0,1,0,0,3.41A1.71,1.71,0,1,0,7.18,16.14Z"/><path class="cls-3" d="M16.46,22.86a.6.6,0,1,0,0,1.21A.6.6,0,1,0,16.46,22.86Z"/></g></g></svg>