<svg xmlns="http://www.w3.org/2000/svg" viewBox="0 0 29.46 31.75"><defs><style>.cls-1{fill:#a1887f;}.cls-2{fill:#795548;}.cls-3{fill:#5d4037;opacity:0.6;}</style></defs><title>Fichier 3</title><g id="Calque_2" data-name="Calque 2"><g id="Calque_3" data-name="Calque 3"><path class="cls-1" d="M29.29,12.11c-.67-4.8-5.1-4-8.32-5.58-1.68-.84-2.26-2.75-4-3.89A15.66,15.66,0,0,0,11.11.7,15.77,15.77,0,0,0,6.89.48a2.26,2.26,0,0,0-2.78,0C.78,2.73-.8,6.19.4,10.17c1.05,3.46,2,4.84,1.37,8.76-.32,2.1-.91,4.29-.59,6.42.67,4.54,6.1,5.45,10,5.62a11.59,11.59,0,0,0,11-5.43C24.51,22.23,29.89,16.39,29.29,12.11Z"/><path class="cls-2" d="M29.27,11.2c-1-3.27-3.42-2-5.48-.63A34,34,0,0,1,3.68,16.25a1.59,1.59,0,0,0-.63.11C1.72,16.73.84,18.45.49,19.77-.3,22.71,0,27.4,2.41,29.64c2.87,2.72,8.95,2.32,12.46,1.47,4.44-1.08,7.61-5.52,10.19-9C26.91,19.6,30.31,14.64,29.27,11.2Z"/><path class="cls-3" d="M4.07,5.14a1.07,1.07,0,0,0,0,2.14A1.07,1.07,0,0,0,4.07,5.14Z"/><path class="cls-3" d="M10.31,1.56C7.44,1.56,7.44,6,10.31,6S13.17,1.56,10.31,1.56Z"/><path class="cls-3" d="M7.38,12.46a1.64,1.64,0,0,0,0,3.28A1.64,1.64,0,0,0,7.38,12.46Z"/><path class="cls-3" d="M11.07,8.38a.76.76,0,0,0,0,1.51A.76.76,0,0,0,11.07,8.38Z"/><path class="cls-3" d="M4.83,8a1.89,1.89,0,0,0,0,3.77A1.89,1.89,0,0,0,4.83,8Z"/><path class="cls-3" d="M15.27,3.13c-3.63,0-3.63,5.64,0,5.64S18.9,3.13,15.27,3.13Z"/><path class="cls-3" d="M14.12,11.65c-3,0-3,4.63,0,4.63S17.11,11.65,14.12,11.65Z"/><path class="cls-3" d="M22,11.25a1.07,1.07,0,0,0,0,2.13A1.07,1.07,0,0,0,22,11.25Z"/><path class="cls-3" d="M19.09,8.14c-2.59,0-2.59,4,0,4S21.68,8.14,19.09,8.14Z"/><path class="cls-3" d="M4.83,20.53a1.84,1.84,0,0,0,0,3.69A1.84,1.84,0,0,0,4.83,20.53Z"/><path class="cls-3" d="M6.11,25c-3.29,0-3.3,5.11,0,5.11S9.4,25,6.11,25Z"/><path class="cls-3" d="M13,21.5a1.51,1.51,0,0,0,0,3A1.51,1.51,0,0,0,13,21.5Z"/><path class="cls-3" d="M10.05,17.09a1.84,1.84,0,0,0,0,3.69A1.84,1.84,0,0,0,10.05,17.09Z"/><path class="cls-3" d="M12.09,27.88a1,1,0,0,0,0,2A1,1,0,0,0,12.09,27.88Z"/><path class="cls-3" d="M17.82,23.43a1.74,1.74,0,0,0,0,3.49A1.74,1.74,0,0,0,17.82,23.43Z"/><path class="cls-3" d="M18.2,17.81a.87.87,0,0,0,0,1.74A.87.87,0,0,0,18.2,17.81Z"/><path class="cls-3" d="M24.18,16.62a1.55,1.55,0,0,0,0,3.1A1.55,1.55,0,0,0,24.18,16.62Z"/><path class="cls-3" d="M21.38,21.26a.85.85,0,0,0,0,1.7A.85.85,0,0,0,21.38,21.26Z"/><path class="cls-3" d="M27,12.28a.41.41,0,0,0,0,.83A.41.41,0,0,0,27,12.28Z"/><path class="cls-3" d="M3.18,15.35a.66.66,0,0,0,0,1.32A.66.66,0,0,0,3.18,15.35Z"/><path class="cls-3" d="M15.14,18.89a.43.43,0,0,0,0,.85A.43.43,0,0,0,15.14,18.89Z"/><path class="cls-3" d="M20.49,15.45a.43.43,0,0,0,0,.86A.43.43,0,0,0,20.49,15.45Z"/><path class="cls-3" d="M10.05,24.36a.43.43,0,0,0,0,.86A.43.43,0,0,0,10.05,24.36Z"/><path class="cls-3" d="M8.4,10.17a.49.49,0,0,0,0,1A.49.49,0,0,0,8.4,10.17Z"/><path class="cls-3" d="M7.89,6.83a.65.65,0,0,0,0,1.3A.65.65,0,0,0,7.89,6.83Z"/></g></g></svg>