<svg xmlns="http://www.w3.org/2000/svg" viewBox="0 0 31.77 31.5"><defs><style>.cls-1{fill:#a1887f;}.cls-2{fill:#795548;}.cls-3{fill:#5d4037;opacity:0.6;}</style></defs><title>Fichier 2</title><g id="Calque_2" data-name="Calque 2"><g id="Calque_2-2" data-name="Calque 2"><path class="cls-1" d="M31.33,7.18a6,6,0,0,0-2.56-3.9c-.68-.4-3.58-.73-3.86-.12-.38-.84-.67-2-1.66-2.54-1.7-1-4.31-.62-6.12-.16-2.2.55-4,1.83-5.94,2.86C8.6,4.64,5,5,2.86,7.21,1.37,8.76,1.38,10.08,1.39,12c0,2.68-.93,4.88-1.19,7.52-.65,6.56,4.74,7.75,9.28,11.27a3.16,3.16,0,0,0,3.34.37,15.36,15.36,0,0,0,6.8-1.91c5.34-2.58,3.16-6.65,5.52-11.12C27.05,14.54,32.26,11.88,31.33,7.18Z"/><path class="cls-2" d="M30.3,10.91c1.21-1.39,2.13-2.63.86-5.2-1.09-2.19-3-3.69-5.49-3.47a2.81,2.81,0,0,0-2.57,2.4,2.91,2.91,0,0,0-.74,1.1C20.26,11.26,15.68,16.17,9.81,17.9c-3,.89-7.94-.3-9.48,3.26a2.9,2.9,0,0,0,.43,3.32,28.22,28.22,0,0,0,7.39,5.58,7.36,7.36,0,0,0,6,.88,5.81,5.81,0,0,0,5.35-1.74A6.61,6.61,0,0,0,23.3,25c1.33-3.51,3-6.83,4.47-10.25a15.7,15.7,0,0,0,2.28-3.26A3.32,3.32,0,0,0,30.3,10.91Z"/><path class="cls-3" d="M8,9a.53.53,0,0,0,0,1.06A.53.53,0,0,0,8,9Z"/><path class="cls-3" d="M14.78,5.61a1.85,1.85,0,0,0,0,3.7A1.85,1.85,0,0,0,14.78,5.61Z"/><path class="cls-3" d="M21.62,3.73a.67.67,0,0,0,0,1.34A.67.67,0,0,0,21.62,3.73Z"/><path class="cls-3" d="M12.37,17.37a.13.13,0,0,0,0,.26A.13.13,0,0,0,12.37,17.37Z"/><path class="cls-3" d="M11.78,22.22a1.08,1.08,0,0,0,0,2.16A1.08,1.08,0,0,0,11.78,22.22Z"/><path class="cls-3" d="M20.71,17.54a1.13,1.13,0,0,0,0,2.26A1.13,1.13,0,0,0,20.71,17.54Z"/><path class="cls-3" d="M26.64,9.59a.74.74,0,0,0,0,1.48A.74.74,0,0,0,26.64,9.59Z"/><path class="cls-3" d="M21.89,9.9c-2.82,0-2.82,4.38,0,4.38S24.71,9.9,21.89,9.9Z"/><path class="cls-3" d="M14.33,12a1.18,1.18,0,0,0,0,2.36A1.18,1.18,0,0,0,14.33,12Z"/><path class="cls-3" d="M5.07,17.54a.16.16,0,0,0,0,.31A.16.16,0,0,0,5.07,17.54Z"/><path class="cls-3" d="M5.4,20.59c-3.41,0-3.41,5.3,0,5.3S8.81,20.59,5.4,20.59Z"/><path class="cls-3" d="M15.76,27.58a.28.28,0,0,0,0,.56A.28.28,0,0,0,15.76,27.58Z"/><path class="cls-3" d="M16.74,22.24a1.78,1.78,0,0,0,0,3.56A1.78,1.78,0,0,0,16.74,22.24Z"/><path class="cls-3" d="M8.2,15c-3.42,0-3.43,5.32,0,5.32S11.63,15,8.2,15Z"/><path class="cls-3" d="M4.16,12.34a.14.14,0,0,0,0,.27A.14.14,0,0,0,4.16,12.34Z"/><path class="cls-3" d="M6.63,12.18a.57.57,0,0,0,0,1.13A.57.57,0,0,0,6.63,12.18Z"/><path class="cls-3" d="M15.82,17.23a.79.79,0,0,0,0,1.57A.79.79,0,0,0,15.82,17.23Z"/><path class="cls-3" d="M16.35,1.62a1,1,0,0,0,0,2A1,1,0,0,0,16.35,1.62Z"/><path class="cls-3" d="M10.09,5.49a1.06,1.06,0,0,0,0,2.12A1.06,1.06,0,0,0,10.09,5.49Z"/><path class="cls-3" d="M25.67,5.35a.68.68,0,0,0,0,1.36A.68.68,0,0,0,25.67,5.35Z"/><path class="cls-3" d="M29,5.43c-2.53,0-2.54,3.93,0,3.93S31.52,5.43,29,5.43Z"/></g></g></svg>