<?xml version="1.0" encoding="utf-8"?>
<!-- Generator: Adobe Illustrator 21.0.0, SVG Export Plug-In . SVG Version: 6.00 Build 0)  -->
<svg version="1.1" id="Calque_1" xmlns="http://www.w3.org/2000/svg" xmlns:xlink="http://www.w3.org/1999/xlink" x="0px" y="0px"
	 viewBox="0 0 32 32" style="enable-background:new 0 0 32 32;" xml:space="preserve">
<style type="text/css">
	.st0{fill:#2196F3;}
	.st1{fill:#FFFFFF;}
	.st2{fill:#2E7D32;}
</style>
<circle class="st0" cx="16" cy="16" r="16"/>
<path class="st1" d="M26.8,25.1c-1.8-0.6-4.2,0.3-6,0.2c-2.8,0-5.6,0.4-8.3-0.1c-2.3-0.5-5.4-1.5-7.7-1c-1.1,0.2-1.3,1.3-0.9,2.1
	c0,0.2,0,0.4,0.2,0.7c1.9,3.6,6.5,5,10.3,5.1c5.3,0.2,8.3-1.9,12.7-4.2C28.3,27.2,27.9,25.5,26.8,25.1z"/>
<path class="st1" d="M24.8,2.2c-3.9-2.4-8.9-2.9-13.3-1.5c-0.2-0.1-0.5-0.1-0.8,0C9.8,0.9,9,1.3,8.4,1.9C8.1,2,7.9,2.3,7.8,2.6
	c0,0,0,0,0,0c-0.3,0.5-0.2,1.1,0,1.5c0.1,0.1,0.1,0.2,0.2,0.3c0.2,0.4,0.8,0.8,1.3,0.7c2.7-0.3,5.3-0.8,8.1-0.8c2.2,0.1,5,1,7.1,0.4
	C25.7,4.5,25.9,2.8,24.8,2.2z"/>
<path class="st2" d="M7.9,6c-1.1-0.3-2.1,0.1-3,0.8c0,0-0.1-0.1-0.1-0.1c-0.3-0.4-1-0.6-1.5-0.4C2,6.8,1.4,8.3,1.2,9.9
	c0,0.1,0,0.1-0.1,0.2c0,0,0,0,0,0C1.1,10.2,1,10.3,1,10.5c0,0,0,0,0,0c0,0.1,0,0.1-0.1,0.2c-0.4,1-0.7,2.1-0.8,3.1
	c0,0.1,0,0.2-0.1,0.3c-0.5,2.2-0.9,4.6,0.5,6.6c0.9,1.2,2.6,2,3.9,0.9c0.5-0.4,0.8-1.1,0.8-1.8c0-0.5-0.3-0.7-0.4-1.1
	c-0.4-1.1-0.2-1.2,0.7-1.9c1.4-1.2,3-2.1,2.2-4.1c-0.4-1.1-0.9-0.1,0.5-1.2c0.7-0.5,1.2-1.1,1.5-1.8C10.2,8.1,9.5,6.4,7.9,6z"/>
<path class="st2" d="M31.2,10.4c-1-2.9-2.4-3-5.2-2.6c-3.2,0.5-7.4-1.1-10.4,0.6c-1.4,0.8-2.2,2.4-2.8,4.1c-0.1,0.2-0.2,0.3-0.3,0.5
	c-0.7,1.3-0.4,1.6-0.6,2.9c-0.1,0.6,0.1,1.1,0.5,1.4c0.3,0.5,0.9,0.9,1.6,0.8c1.5-0.2,2.5,2.6,3.5,3.5c0.7,0.7,1.5,1,2.5,1.3
	c2.5,0.7,3.6,0.2,5.8-0.9c1.4-0.7,2.1-0.5,3.5-0.8c0.1,0,0.2,0,0.3-0.1c0,0,0.1,0,0.1,0.1c0.8,0.5,2,0,2.2-0.9
	C32.4,16.9,32.3,13.5,31.2,10.4z"/>
</svg>
