<?xml version="1.0" encoding="utf-8"?>
<!-- Generator: Adobe Illustrator 21.0.0, SVG Export Plug-In . SVG Version: 6.00 Build 0)  -->
<svg version="1.1" id="Calque_1" xmlns="http://www.w3.org/2000/svg" xmlns:xlink="http://www.w3.org/1999/xlink" x="0px" y="0px"
	 viewBox="0 0 32 32" style="enable-background:new 0 0 32 32;" xml:space="preserve">
<style type="text/css">
	.st0{fill:#E0E0E0;}
	.st1{opacity:0.4;fill:#000001;}
	.st2{opacity:0.4;}
</style>
<circle class="st0" cx="16" cy="16" r="16"/>
<path class="st1" d="M25.1,2.7c-0.1,0-0.1-0.1-0.2-0.1c-0.6-0.6-1.7-0.7-2.3,0.2c-2.6,4.5-5.9,8.4-9.9,11.6c-1.8,1.5-3.8,2.9-6,3.8
	c-1.6,0.7-3.4,0.7-4.9,1.4c-0.4,0.2-0.7,0.8-0.7,1.3c0.1,3.3,3.6,7.4,6.2,9c3.2,1.8,6.7,2.5,10.2,1.9c0.1,0,0.3,0.1,0.4,0
	c1.2-0.1,1.6-0.1,2.2-0.5c0.3,0.1,0.7,0.1,1.1-0.2c0.3-0.2,0.7-0.4,1-0.6c0.3,0,0.6,0,0.9-0.2c4.9-2.6,8.2-7.6,8.8-13.5
	C32.5,12,29.1,5.2,25.1,2.7z"/>
<path class="st2" d="M6.7,6.3c-1.5,0-1.5,2.3,0,2.3C8.2,8.6,8.2,6.3,6.7,6.3z"/>
<path class="st2" d="M4.7,13.5c-1.2,0-1.2,1.8,0,1.8C5.9,15.3,5.9,13.5,4.7,13.5z"/>
<path class="st2" d="M7.2,21.5C5,21.5,5,25,7.2,25C9.5,25,9.5,21.5,7.2,21.5z"/>
<path class="st2" d="M14.2,16.9c-0.4,0-0.4,0.6,0,0.6C14.6,17.5,14.6,16.9,14.2,16.9z"/>
<path class="st2" d="M17.1,27.6c-0.8,0-0.8,1.3,0,1.3C17.9,28.9,17.9,27.6,17.1,27.6z"/>
<path class="st2" d="M14.1,21.8c-1,0-1,1.5,0,1.5C15,23.3,15,21.8,14.1,21.8z"/>
<path class="st2" d="M10.7,29c-0.5,0-0.5,0.8,0,0.8C11.2,29.8,11.2,29,10.7,29z"/>
<path class="st2" d="M12.3,8.9c-3.8,0-3.8,5.8,0,5.8C16.1,14.8,16.1,8.9,12.3,8.9z"/>
<path class="st2" d="M12.7,2.1c-2.7,0-2.7,4.1,0,4.1C15.3,6.2,15.3,2.1,12.7,2.1z"/>
<path class="st2" d="M23.7,3.7c-3.7,0-3.7,5.7,0,5.7C27.4,9.4,27.4,3.7,23.7,3.7z"/>
<path class="st2" d="M19.2,12c-1.9,0-1.9,2.9,0,2.9C21.1,14.9,21.1,12,19.2,12z"/>
<path class="st2" d="M21.2,19.1c-3.2,0-3.2,5,0,5C24.4,24.1,24.4,19.1,21.2,19.1z"/>
<path class="st2" d="M27.4,12.1c-2.8,0-2.8,4.3,0,4.3C30.2,16.4,30.2,12.1,27.4,12.1z"/>
<path class="st2" d="M8.7,17c-1.6,0-1.6,2.5,0,2.5C10.3,19.5,10.3,17,8.7,17z"/>
<path class="st2" d="M2.5,17.7c-2.1,0-2.1,3.3,0,3.3C4.6,20.9,4.7,17.7,2.5,17.7z"/>
<path class="st2" d="M22.7,25.4c-2.2,0-2.2,3.4,0,3.4C24.9,28.8,24.9,25.4,22.7,25.4z"/>
<path class="st2" d="M27.6,19.5c-2.5,0-2.5,3.9,0,3.9C30.1,23.4,30.1,19.5,27.6,19.5z"/>
</svg>
